<svg width="39" height="37" viewBox="0 0 39 37" fill="none" xmlns="http://www.w3.org/2000/svg">
<path d="M34.2011 5.03414H10.9519L10.7276 4.09685C10.4784 2.89921 9.91772 1.92287 9.04556 1.16783C8.1734 0.412797 7.13927 0.0352783 5.94316 0.0352783H2.28009C1.83155 0.0352783 1.45777 0.191493 1.15874 0.503922C0.859718 0.81635 0.710205 1.23292 0.710205 1.75364C0.710205 2.22228 0.859718 2.61282 1.15874 2.92525C1.45777 3.23767 1.83155 3.39389 2.28009 3.39389H5.94316C6.89008 3.39389 7.4383 3.8365 7.58781 4.72171L11.2509 24.7172C11.5499 25.8107 12.1355 26.6959 13.0077 27.3728C13.8798 28.0497 14.8392 28.3882 15.8858 28.3882H30.9866C31.485 28.3882 31.8837 28.232 32.1827 27.9196C32.4817 27.6071 32.6313 27.2166 32.6313 26.7479C32.6313 25.6024 32.083 25.0296 30.9866 25.0296H15.8858C15.1881 25.0296 14.6897 24.7172 14.3907 24.0923L14.2411 23.3893H30.239C31.2358 23.3893 32.1453 23.0769 32.9677 22.452C33.79 21.8272 34.3507 21.0201 34.6497 20.0307L38.9856 10.4235V10.033C38.9856 8.62707 38.5246 7.44245 37.6026 6.47912C36.6806 5.5158 35.5468 5.03414 34.2011 5.03414ZM15.0635 20.0307H13.6431L11.5499 8.39275H15.0635V20.0307ZM21.4178 20.0307H18.278V8.39275H21.4178V20.0307ZM27.8468 20.0307H24.6323V8.39275H27.8468V20.0307ZM31.8089 18.7029V18.8591C31.6594 19.3798 31.3853 19.7183 30.9866 19.8745V8.39275H34.2011C35.0982 8.39275 35.6215 8.83536 35.771 9.72057L31.8089 18.7029ZM19.8479 33.3871C19.8479 34.3243 19.5364 35.1184 18.9134 35.7693C18.2905 36.4202 17.5304 36.7457 16.6334 36.7457C15.7861 36.7457 15.051 36.4202 14.428 35.7693C13.8051 35.1184 13.4936 34.3243 13.4936 33.3871C13.4936 32.4498 13.8051 31.6557 14.428 31.0048C15.051 30.3539 15.7861 30.0285 16.6334 30.0285C17.5304 30.0285 18.2905 30.3539 18.9134 31.0048C19.5364 31.6557 19.8479 32.4498 19.8479 33.3871ZM32.6313 33.3871C32.6313 34.3243 32.3198 35.1184 31.6968 35.7693C31.0738 36.4202 30.3138 36.7457 29.4167 36.7457C28.5197 36.7457 27.7596 36.4202 27.1367 35.7693C26.5137 35.1184 26.2022 34.3243 26.2022 33.3871C26.2022 32.4498 26.5137 31.6557 27.1367 31.0048C27.7596 30.3539 28.5197 30.0285 29.4167 30.0285C30.3138 30.0285 31.0738 30.3539 31.6968 31.0048C32.3198 31.6557 32.6313 32.4498 32.6313 33.3871Z" fill="#FCF9F9"/>
</svg>
