<svg width="27" height="36" viewBox="0 0 27 36" fill="none" xmlns="http://www.w3.org/2000/svg">
<path d="M24.4047 0.0823364C24.8629 0.0823993 25.3051 0.25726 25.6475 0.573751C25.9899 0.890242 26.2086 1.32635 26.2622 1.79936L26.2753 2.02687V33.1395C26.2748 33.6351 26.0922 34.1118 25.7649 34.4722C25.4376 34.8326 24.9903 35.0495 24.5143 35.0785C24.0384 35.1076 23.5697 34.9466 23.2041 34.6285C22.8385 34.3104 22.6035 33.8591 22.5472 33.367L22.5341 33.1395V23.4168H20.6635C20.2053 23.4167 19.7631 23.2419 19.4207 22.9254C19.0784 22.6089 18.8596 22.1728 18.806 21.6998L18.7929 21.4723V9.80503C18.7929 5.5076 21.5988 0.0823364 24.4047 0.0823364ZM13.1811 0.0823364C13.6393 0.0823993 14.0815 0.25726 14.4239 0.573751C14.7663 0.890242 14.985 1.32635 15.0386 1.79936L15.0517 2.02687V11.7496C15.0515 13.4741 14.5002 15.1497 13.4845 16.5133C12.4687 17.8768 11.0461 18.8509 9.43992 19.2827V33.1395C9.43939 33.6351 9.25682 34.1118 8.92953 34.4722C8.60223 34.8326 8.1549 35.0495 7.67894 35.0785C7.20298 35.1076 6.73432 34.9466 6.3687 34.6285C6.00309 34.3104 5.76812 33.8591 5.71181 33.367L5.69872 33.1395V19.2827C4.15632 18.8682 2.78134 17.953 1.77375 16.6702C0.766168 15.3875 0.178518 13.804 0.0962673 12.1501L0.0869141 11.7496V2.02687C0.0874429 1.53125 0.270006 1.05454 0.597304 0.69415C0.924601 0.333757 1.37193 0.116881 1.84789 0.0878354C2.32385 0.0587896 2.79251 0.219766 3.15813 0.537873C3.52374 0.855981 3.75871 1.30721 3.81502 1.79936L3.82811 2.02687V11.7496C3.82813 12.4322 4.00101 13.1029 4.32936 13.694C4.65772 14.2852 5.13 14.7762 5.69872 15.1175V2.02687C5.69924 1.53125 5.88181 1.05454 6.20911 0.69415C6.5364 0.333757 6.98373 0.116881 7.45969 0.0878354C7.93565 0.0587896 8.40431 0.219766 8.76993 0.537873C9.13554 0.855981 9.37051 1.30721 9.42682 1.79936L9.43992 2.02687L9.44179 15.1175C9.9638 14.8038 10.4052 14.3637 10.7282 13.8345C11.0513 13.3053 11.2466 12.7027 11.2974 12.0782L11.3105 11.7496V2.02687C11.3105 1.51115 11.5076 1.01655 11.8584 0.651878C12.2092 0.287207 12.685 0.0823364 13.1811 0.0823364V0.0823364Z" fill="#FF8484"/>
</svg>
