<svg width="31" height="36" viewBox="0 0 31 36" fill="none" xmlns="http://www.w3.org/2000/svg">
<path d="M21.5725 21.1728C19.6367 21.1728 18.7059 22.2853 15.529 22.2853C12.3521 22.2853 11.4281 21.1728 9.4855 21.1728C4.48075 21.1728 0.420288 25.3586 0.420288 30.5178V32.2978C0.420288 34.1404 1.87045 35.6353 3.65787 35.6353H27.4001C29.1875 35.6353 30.6377 34.1404 30.6377 32.2978V30.5178C30.6377 25.3586 26.5772 21.1728 21.5725 21.1728ZM27.4001 32.2978H3.65787V30.5178C3.65787 27.2081 6.27491 24.5103 9.4855 24.5103C10.4703 24.5103 12.0688 25.6228 15.529 25.6228C19.0161 25.6228 20.581 24.5103 21.5725 24.5103C24.7831 24.5103 27.4001 27.2081 27.4001 30.5178V32.2978ZM15.529 20.0603C20.8912 20.0603 25.2417 15.5755 25.2417 10.0478C25.2417 4.52004 20.8912 0.0352783 15.529 0.0352783C10.1667 0.0352783 5.81625 4.52004 5.81625 10.0478C5.81625 15.5755 10.1667 20.0603 15.529 20.0603ZM15.529 3.37278C19.0971 3.37278 22.0041 6.36957 22.0041 10.0478C22.0041 13.726 19.0971 16.7228 15.529 16.7228C11.9609 16.7228 9.05383 13.726 9.05383 10.0478C9.05383 6.36957 11.9609 3.37278 15.529 3.37278Z" fill="#FF8484"/>
</svg>
